<svg width="150" height="30" viewBox="0 0 150 30" fill="none" xmlns="http://www.w3.org/2000/svg">
<g clip-path="url(#clip0)">
<path d="M75.5 6C75.5 5.72386 75.2761 5.5 75 5.5C74.7239 5.5 74.5 5.72386 74.5 6H75.5ZM74.6464 24.3536C74.8417 24.5488 75.1583 24.5488 75.3536 24.3536L78.5355 21.1716C78.7308 20.9763 78.7308 20.6597 78.5355 20.4645C78.3403 20.2692 78.0237 20.2692 77.8284 20.4645L75 23.2929L72.1716 20.4645C71.9763 20.2692 71.6597 20.2692 71.4645 20.4645C71.2692 20.6597 71.2692 20.9763 71.4645 21.1716L74.6464 24.3536ZM74.5 6V24H75.5V6H74.5Z" fill="#A9B7C6"/>
<path d="M107.395 6.30697C107.564 6.089 107.525 5.77486 107.307 5.60532C107.089 5.43579 106.775 5.47506 106.605 5.69303L107.395 6.30697ZM92.5039 24.062C92.5381 24.336 92.788 24.5304 93.062 24.4961L97.5273 23.938C97.8013 23.9037 97.9956 23.6538 97.9614 23.3798C97.9271 23.1058 97.6772 22.9115 97.4032 22.9457L93.4341 23.4418L92.938 19.4727C92.9037 19.1987 92.6538 19.0044 92.3798 19.0386C92.1058 19.0729 91.9115 19.3228 91.9457 19.5968L92.5039 24.062ZM106.605 5.69303L92.6053 23.693L93.3947 24.307L107.395 6.30697L106.605 5.69303Z" fill="#A9B7C6"/>
<path d="M43.6053 6.30697C43.4358 6.089 43.4751 5.77486 43.693 5.60532C43.911 5.43579 44.2251 5.47506 44.3947 5.69303L43.6053 6.30697ZM58.4961 24.062C58.4619 24.336 58.212 24.5304 57.938 24.4961L53.4727 23.938C53.1987 23.9037 53.0044 23.6538 53.0386 23.3798C53.0729 23.1058 53.3228 22.9115 53.5968 22.9457L57.5659 23.4418L58.062 19.4727C58.0963 19.1987 58.3462 19.0044 58.6202 19.0386C58.8942 19.0729 59.0885 19.3228 59.0543 19.5968L58.4961 24.062ZM44.3947 5.69303L58.3947 23.693L57.6053 24.307L43.6053 6.30697L44.3947 5.69303Z" fill="#A9B7C6"/>
<path d="M148.229 6.44464C148.474 6.31835 148.571 6.0169 148.445 5.77133C148.318 5.52576 148.017 5.42906 147.771 5.55536L148.229 6.44464ZM112.524 23.8473C112.44 24.1102 112.584 24.3918 112.847 24.4761L117.132 25.8505C117.395 25.9349 117.677 25.7901 117.761 25.5271C117.845 25.2642 117.701 24.9827 117.438 24.8983L113.629 23.6766L114.851 19.8677C114.935 19.6048 114.79 19.3233 114.527 19.2389C114.264 19.1546 113.983 19.2994 113.898 19.5623L112.524 23.8473ZM147.771 5.55536L112.771 23.5554L113.229 24.4446L148.229 6.44464L147.771 5.55536Z" fill="#A9B7C6"/>
<path d="M1.22867 5.55536C0.983104 5.42906 0.681649 5.52576 0.555356 5.77133C0.429063 6.0169 0.525756 6.31835 0.771326 6.44464L1.22867 5.55536ZM36.1527 24.4761C36.4157 24.3918 36.5605 24.1102 36.4761 23.8473L35.1017 19.5623C35.0173 19.2994 34.7358 19.1546 34.4729 19.2389C34.2099 19.3233 34.0651 19.6048 34.1495 19.8677L35.3712 23.6766L31.5623 24.8983C31.2994 24.9827 31.1546 25.2642 31.2389 25.5271C31.3233 25.7901 31.6048 25.9349 31.8677 25.8505L36.1527 24.4761ZM0.771326 6.44464L35.7713 24.4446L36.2287 23.5554L1.22867 5.55536L0.771326 6.44464Z" fill="#A9B7C6"/>
</g>
<defs>
<clipPath id="clip0">
<rect width="150" height="30" fill="white"/>
</clipPath>
</defs>
</svg>
