<svg width="180" height="180" viewBox="-1 -1 31 31" xmlns="http://www.w3.org/2000/svg"
     xmlns:xlink="http://www.w3.org/1999/xlink" shape-rendering="crispEdges" id="qr code">
    <rect id="qr background" fill-opacity="1" fill="rgb(255, 255, 255)" x="-1" y="-1" width="31" height="31"></rect>
    <path fill-opacity="1" fill="rgb(0, 0, 0)" id="qr dark pixels" fill-rule="evenodd"
          d="M 11 0 L 14 0 L 14 1 L 11 1 z M 16 0 L 17 0 L 17 1 L 16 1 z M 18 0 L 21 0 L 21 5 L 18 5 L 18 6 L 17 6 L 17 7 L 16 7 L 16 6 L 15 6 L 15 7 L 16 7 L 16 9 L 14 9 L 14 10 L 16 10 L 16 11 L 17 11 L 17 12 L 18 12 L 18 13 L 20 13 L 20 11 L 21 11 L 21 10 L 22 10 L 22 11 L 23 11 L 23 12 L 21 12 L 21 14 L 22 14 L 22 13 L 25 13 L 25 14 L 27 14 L 27 15 L 23 15 L 23 16 L 21 16 L 21 15 L 20 15 L 20 14 L 18 14 L 18 15 L 17 15 L 17 14 L 16 14 L 16 13 L 15 13 L 15 14 L 16 14 L 16 15 L 15 15 L 15 17 L 12 17 L 12 18 L 10 18 L 10 16 L 14 16 L 14 15 L 12 15 L 12 14 L 13 14 L 13 13 L 14 13 L 14 12 L 15 12 L 15 11 L 13 11 L 13 8 L 14 8 L 14 6 L 13 6 L 13 8 L 11 8 L 11 7 L 12 7 L 12 5 L 13 5 L 13 3 L 14 3 L 14 2 L 15 2 L 15 1 L 16 1 L 16 2 L 17 2 L 17 3 L 18 3 L 18 2 L 17 2 L 17 1 L 18 1 zM 19 1 L 20 1 L 20 4 L 19 4 z M 14 4 L 16 4 L 16 5 L 14 5 z M 8 1 L 9 1 L 9 2 L 8 2 z M 10 1 L 11 1 L 11 2 L 13 2 L 13 3 L 10 3 L 10 4 L 8 4 L 8 3 L 9 3 L 9 2 L 10 2 z M 11 4 L 12 4 L 12 5 L 11 5 z M 8 5 L 9 5 L 9 7 L 8 7 z M 10 5 L 11 5 L 11 7 L 10 7 z M 18 6 L 19 6 L 19 8 L 18 8 z M 20 6 L 21 6 L 21 7 L 20 7 z M 0 8 L 5 8 L 5 11 L 4 11 L 4 9 L 1 9 L 1 11 L 0 11 z M 6 8 L 11 8 L 11 9 L 10 9 L 10 11 L 12 11 L 12 12 L 13 12 L 13 13 L 12 13 L 12 14 L 11 14 L 11 15 L 10 15 L 10 16 L 9 16 L 9 15 L 8 15 L 8 16 L 7 16 L 7 15 L 6 15 L 6 14 L 8 14 L 8 13 L 9 13 L 9 14 L 10 14 L 10 13 L 11 13 L 11 12 L 10 12 L 10 13 L 9 13 L 9 12 L 7 12 L 7 11 L 6 11 L 6 10 L 7 10 L 7 9 L 6 9 zM 8 9 L 9 9 L 9 11 L 8 11 z M 17 8 L 18 8 L 18 9 L 19 9 L 19 8 L 20 8 L 20 9 L 21 9 L 21 10 L 19 10 L 19 11 L 18 11 L 18 10 L 16 10 L 16 9 L 17 9 z M 21 8 L 22 8 L 22 9 L 21 9 z M 23 8 L 24 8 L 24 9 L 25 9 L 25 11 L 26 11 L 26 12 L 27 12 L 27 13 L 25 13 L 25 12 L 24 12 L 24 11 L 23 11 L 23 10 L 22 10 L 22 9 L 23 9 z M 25 8 L 26 8 L 26 9 L 25 9 z M 27 8 L 28 8 L 28 9 L 27 9 z M 11 9 L 12 9 L 12 10 L 11 10 z M 28 9 L 29 9 L 29 10 L 28 10 z M 3 11 L 4 11 L 4 12 L 3 12 z M 27 11 L 28 11 L 28 12 L 27 12 z M 1 12 L 2 12 L 2 14 L 1 14 z M 4 12 L 5 12 L 5 13 L 4 13 z M 6 12 L 7 12 L 7 13 L 6 13 z M 5 13 L 6 13 L 6 14 L 5 14 z M 28 13 L 29 13 L 29 14 L 28 14 z M 0 14 L 1 14 L 1 16 L 0 16 z M 2 14 L 3 14 L 3 15 L 2 15 z M 4 14 L 5 14 L 5 15 L 4 15 z M 5 15 L 6 15 L 6 16 L 5 16 z M 16 15 L 17 15 L 17 16 L 16 16 z M 27 15 L 28 15 L 28 16 L 27 16 z M 1 16 L 3 16 L 3 17 L 1 17 z M 4 16 L 5 16 L 5 19 L 4 19 L 4 20 L 2 20 L 2 18 L 3 18 L 3 17 L 4 17 z M 6 16 L 7 16 L 7 17 L 6 17 z M 8 16 L 9 16 L 9 17 L 8 17 z M 17 16 L 20 16 L 20 17 L 25 17 L 25 18 L 21 18 L 21 20 L 19 20 L 19 19 L 20 19 L 20 18 L 18 18 L 18 19 L 17 19 L 17 20 L 16 20 L 16 21 L 15 21 L 15 22 L 14 22 L 14 21 L 12 21 L 12 22 L 11 22 L 11 21 L 10 21 L 10 20 L 9 20 L 9 21 L 10 21 L 10 22 L 9 22 L 9 23 L 8 23 L 8 18 L 10 18 L 10 19 L 12 19 L 12 20 L 14 20 L 14 19 L 15 19 L 15 18 L 16 18 L 16 17 L 17 17 z M 25 16 L 27 16 L 27 19 L 26 19 L 26 17 L 25 17 z M 0 17 L 1 17 L 1 21 L 0 21 z M 7 17 L 8 17 L 8 18 L 7 18 z M 28 17 L 29 17 L 29 18 L 28 18 z M 6 18 L 7 18 L 7 19 L 6 19 z M 13 18 L 14 18 L 14 19 L 13 19 z M 24 19 L 25 19 L 25 20 L 24 20 z M 27 19 L 28 19 L 28 20 L 29 20 L 29 22 L 27 22 L 27 23 L 25 23 L 25 21 L 26 21 L 26 20 L 27 20 z M 6 20 L 7 20 L 7 21 L 6 21 z M 17 20 L 18 20 L 18 21 L 17 21 z M 16 21 L 17 21 L 17 23 L 15 23 L 15 22 L 16 22 z M 13 22 L 14 22 L 14 23 L 13 23 z M 18 22 L 20 22 L 20 24 L 18 24 z M 9 23 L 13 23 L 13 24 L 14 24 L 14 23 L 15 23 L 15 24 L 18 24 L 18 25 L 17 25 L 17 26 L 20 26 L 20 25 L 21 25 L 21 27 L 22 27 L 22 28 L 23 28 L 23 29 L 21 29 L 21 28 L 20 28 L 20 27 L 19 27 L 19 28 L 18 28 L 18 27 L 17 27 L 17 28 L 16 28 L 16 29 L 14 29 L 14 27 L 15 27 L 15 26 L 16 26 L 16 25 L 15 25 L 15 26 L 14 26 L 14 25 L 12 25 L 12 24 L 9 24 z M 28 23 L 29 23 L 29 24 L 28 24 z M 8 24 L 9 24 L 9 25 L 10 25 L 10 26 L 9 26 L 9 27 L 10 27 L 10 28 L 9 28 L 9 29 L 8 29 z M 26 24 L 28 24 L 28 25 L 27 25 L 27 26 L 28 26 L 28 28 L 27 28 L 27 27 L 26 27 L 26 28 L 25 28 L 25 29 L 24 29 L 24 28 L 23 28 L 23 27 L 22 27 L 22 26 L 23 26 L 23 25 L 24 25 L 24 26 L 25 26 L 25 25 L 26 25 z M 11 25 L 12 25 L 12 26 L 11 26 z M 28 25 L 29 25 L 29 26 L 28 26 z M 10 26 L 11 26 L 11 27 L 10 27 z M 13 26 L 14 26 L 14 27 L 13 27 z M 11 27 L 12 27 L 12 29 L 11 29 z M 17 28 L 18 28 L 18 29 L 17 29 z M 26 28 L 27 28 L 27 29 L 26 29 z"></path>
    <path id="qr squares"
          d="M0,0h7h0v0v7v0h0h-7h0v0v-7v0h0zM1,1h5h0v0v5v0h0h-5h0v0v-5v0h0zM2,2h3h0v0v3v0h0h-3h0v0v-3v0h0z M22,0h7h0v0v7v0h0h-7h0v0v-7v0h0zM23,1h5h0v0v5v0h0h-5h0v0v-5v0h0zM24,2h3h0v0v3v0h0h-3h0v0v-3v0h0z M0,22h7h0v0v7v0h0h-7h0v0v-7v0h0zM1,23h5h0v0v5v0h0h-5h0v0v-5v0h0zM2,24h3h0v0v3v0h0h-3h0v0v-3v0h0zM20,20h5h0v0v5v0h0h-5h0v0v-5v0h0zM21,21h3h0v0v3v0h0h-3h0v0v-3v0h0zM22,22h1h0v0v1v0h0h-1h0v0v-1v0h0z"
          fill-rule="evenodd" fill-opacity="1" fill="rgb(0, 0, 0)"></path>
</svg>