<svg width="160" height="30" viewBox="0 0 160 30" fill="none" xmlns="http://www.w3.org/2000/svg">
<g clip-path="url(#clip0)">
<path d="M1.22867 5.55536C0.983104 5.42906 0.681649 5.52576 0.555356 5.77133C0.429063 6.0169 0.525756 6.31835 0.771326 6.44464L1.22867 5.55536ZM36.1527 24.4761C36.4157 24.3918 36.5604 24.1102 36.4761 23.8473L35.1017 19.5623C35.0173 19.2994 34.7358 19.1546 34.4729 19.2389C34.2099 19.3233 34.0651 19.6048 34.1495 19.8677L35.3712 23.6766L31.5623 24.8983C31.2994 24.9827 31.1546 25.2642 31.2389 25.5271C31.3233 25.7901 31.6048 25.9349 31.8677 25.8505L36.1527 24.4761ZM0.771326 6.44464L35.7713 24.4446L36.2287 23.5554L1.22867 5.55536L0.771326 6.44464Z" fill="#A9B7C6"/>
<path d="M15.2716 5.58021C15.0398 5.4302 14.7302 5.49653 14.5802 5.72837C14.4302 5.96022 14.4965 6.26977 14.7284 6.41979L15.2716 5.58021ZM32.1048 17.4889C32.3748 17.431 32.5468 17.1652 32.4889 16.8952L31.546 12.4951C31.4882 12.2251 31.2224 12.0531 30.9524 12.111C30.6823 12.1688 30.5104 12.4346 30.5682 12.7047L31.4063 16.6159L27.4951 17.454C27.2251 17.5118 27.0531 17.7776 27.111 18.0476C27.1688 18.3177 27.4346 18.4896 27.7047 18.4318L32.1048 17.4889ZM14.7284 6.41979L31.7284 17.4198L32.2716 16.5802L15.2716 5.58021L14.7284 6.41979Z" fill="#A9B7C6"/>
<path d="M37.5 6C37.5 5.72386 37.2761 5.5 37 5.5C36.7239 5.5 36.5 5.72386 36.5 6H37.5ZM36.6464 20.3536C36.8417 20.5488 37.1583 20.5488 37.3536 20.3536L40.5355 17.1716C40.7308 16.9763 40.7308 16.6597 40.5355 16.4645C40.3403 16.2692 40.0237 16.2692 39.8284 16.4645L37 19.2929L34.1716 16.4645C33.9763 16.2692 33.6597 16.2692 33.4645 16.4645C33.2692 16.6597 33.2692 16.9763 33.4645 17.1716L36.6464 20.3536ZM36.5 6V20H37.5V6H36.5Z" fill="#A9B7C6"/>
<path d="M56.5 6C56.5 5.72386 56.2761 5.5 56 5.5C55.7239 5.5 55.5 5.72386 55.5 6H56.5ZM55.6464 23.3536C55.8417 23.5488 56.1583 23.5488 56.3536 23.3536L59.5355 20.1716C59.7308 19.9763 59.7308 19.6597 59.5355 19.4645C59.3403 19.2692 59.0237 19.2692 58.8284 19.4645L56 22.2929L53.1716 19.4645C52.9763 19.2692 52.6597 19.2692 52.4645 19.4645C52.2692 19.6597 52.2692 19.9763 52.4645 20.1716L55.6464 23.3536ZM55.5 6V23H56.5V6H55.5Z" fill="#A9B7C6"/>
<path d="M75.5 6C75.5 5.72386 75.2761 5.5 75 5.5C74.7239 5.5 74.5 5.72386 74.5 6H75.5ZM74.6464 23.3536C74.8417 23.5488 75.1583 23.5488 75.3536 23.3536L78.5355 20.1716C78.7308 19.9763 78.7308 19.6597 78.5355 19.4645C78.3403 19.2692 78.0237 19.2692 77.8284 19.4645L75 22.2929L72.1716 19.4645C71.9763 19.2692 71.6597 19.2692 71.4645 19.4645C71.2692 19.6597 71.2692 19.9763 71.4645 20.1716L74.6464 23.3536ZM74.5 6V23H75.5V6H74.5Z" fill="#A9B7C6"/>
<path d="M94.5 6C94.5 5.72386 94.2761 5.5 94 5.5C93.7239 5.5 93.5 5.72386 93.5 6H94.5ZM93.6464 23.3536C93.8417 23.5488 94.1583 23.5488 94.3536 23.3536L97.5355 20.1716C97.7308 19.9763 97.7308 19.6597 97.5355 19.4645C97.3403 19.2692 97.0237 19.2692 96.8284 19.4645L94 22.2929L91.1716 19.4645C90.9763 19.2692 90.6597 19.2692 90.4645 19.4645C90.2692 19.6597 90.2692 19.9763 90.4645 20.1716L93.6464 23.3536ZM93.5 6V23H94.5V6H93.5Z" fill="#A9B7C6"/>
<path d="M146.771 6.55536C147.017 6.42906 147.318 6.52576 147.445 6.77133C147.571 7.0169 147.474 7.31835 147.229 7.44464L146.771 6.55536ZM113.792 24.4761C113.529 24.3918 113.384 24.1102 113.468 23.8473L114.843 19.5623C114.927 19.2994 115.209 19.1546 115.472 19.2389C115.735 19.3233 115.879 19.6048 115.795 19.8677L114.573 23.6766L118.382 24.8983C118.645 24.9827 118.79 25.2642 118.706 25.5271C118.621 25.7901 118.34 25.9349 118.077 25.8505L113.792 24.4761ZM147.229 7.44464L114.173 24.4446L113.716 23.5554L146.771 6.55536L147.229 7.44464Z" fill="#A9B7C6"/>
<path d="M133.506 6.58021C133.738 6.4302 134.048 6.49653 134.198 6.72837C134.348 6.96022 134.281 7.26977 134.049 7.41979L133.506 6.58021ZM117.617 17.8778C117.347 17.8199 117.175 17.5541 117.233 17.2841L118.176 12.884C118.234 12.614 118.5 12.442 118.77 12.4999C119.04 12.5577 119.212 12.8235 119.154 13.0935L118.316 17.0048L122.227 17.8429C122.497 17.9007 122.669 18.1665 122.611 18.4365C122.553 18.7065 122.288 18.8785 122.018 18.8207L117.617 17.8778ZM134.049 7.41979L117.994 17.8087L117.451 16.9691L133.506 6.58021L134.049 7.41979Z" fill="#A9B7C6"/>
<path d="M112.5 7C112.5 6.72386 112.724 6.5 113 6.5C113.276 6.5 113.5 6.72386 113.5 7H112.5ZM113.354 20.3536C113.158 20.5488 112.842 20.5488 112.646 20.3536L109.464 17.1716C109.269 16.9763 109.269 16.6597 109.464 16.4645C109.66 16.2692 109.976 16.2692 110.172 16.4645L113 19.2929L115.828 16.4645C116.024 16.2692 116.34 16.2692 116.536 16.4645C116.731 16.6597 116.731 16.9763 116.536 17.1716L113.354 20.3536ZM113.5 7V20H112.5V7H113.5Z" fill="#A9B7C6"/>
</g>
<defs>
<clipPath id="clip0">
<rect width="160" height="30" fill="white"/>
</clipPath>
</defs>
</svg>
